<svg width="1514" height="1287" viewBox="0 0 1514 1287" fill="none" xmlns="http://www.w3.org/2000/svg">
<path d="M559.56 757.221C564.269 748.959 558.296 738.691 548.786 738.7L4.99175 739.189C3.07642 739.191 1.88359 737.112 2.85193 735.459L114.747 544.504C115.192 543.746 116.004 543.279 116.883 543.279L676.027 542.775C679.584 542.772 682.866 540.862 684.628 537.772L989.929 2.06869C990.369 1.29605 991.19 0.818692 992.079 0.817891L1208.75 0.622788C1210.64 0.621087 1211.83 2.64816 1210.92 4.30033L923.126 524.155C918.552 532.416 924.532 542.551 933.975 542.543L1508.13 542.026C1510.05 542.024 1511.24 544.122 1510.26 545.774L1396.16 736.732C1395.72 737.48 1394.91 737.938 1394.04 737.939L810.314 738.464C806.713 738.468 803.397 740.424 801.653 743.575L503.544 1282.07C503.108 1282.85 502.279 1283.34 501.378 1283.34L263.863 1283.56C261.961 1283.56 260.767 1281.5 261.709 1279.85L559.56 757.221Z" fill="black"/>
<path d="M673.578 180.373C673.862 180.786 674.014 181.274 674.015 181.775L674.325 526.123C674.327 528.565 671.169 529.537 669.797 527.516L314.603 4.19047C313.487 2.54628 314.664 0.323334 316.651 0.321545L548.26 0.11299C549.076 0.112255 549.84 0.513721 550.303 1.18629L673.578 180.373Z" fill="black"/>
<path d="M815.897 1106C815.613 1105.59 815.461 1105.1 815.46 1104.6L815.15 760.248C815.148 757.806 818.307 756.834 819.678 758.854L1174.87 1282.18C1175.99 1283.82 1174.81 1286.05 1172.82 1286.05L941.215 1286.26C940.399 1286.26 939.635 1285.86 939.172 1285.18L815.897 1106Z" fill="black"/>
</svg>
