{
  "accessors": [
    {
      "bufferView": 2,
      "componentType": 5126,
      "count": 7736,
      "max": [
        39.83359909057617,
        328.280029296875,
        16.033370971679688
      ],
      "min": [
        -153.640869140625,
        -329.4262390136719,
        -1.538773536682129
      ],
      "type": "VEC3"
    },
    {
      "bufferView": 2,
      "byteOffset": 92832,
      "componentType": 5126,
      "count": 7736,
      "max": [
        0.3171073794364929,
        0.18076807260513306,
        0.9999994039535522
      ],
      "min": [
        -0.13530892133712769,
        -0.1923089325428009,
        0.9483003616333008
      ],
      "type": "VEC3"
    },
    {
      "bufferView": 1,
      "componentType": 5126,
      "count": 7736,
      "max": [
        0.5,
        1.0
      ],
      "min": [
        0.0,
        0.0
      ],
      "type": "VEC2"
    },
    {
      "bufferView": 0,
      "componentType": 5125,
      "count": 11604,
      "type": "SCALAR"
    },
    {
      "bufferView": 2,
      "byteOffset": 185664,
      "componentType": 5126,
      "count": 30944,
      "max": [
        40.41251754760742,
        329.2205810546875,
        16.45061492919922
      ],
      "min": [
        -154.20509338378906,
        -330.2917785644531,
        -2.6710128784179688
      ],
      "type": "VEC3"
    },
    {
      "bufferView": 2,
      "byteOffset": 556992,
      "componentType": 5126,
      "count": 30944,
      "max": [
        0.9999957084655762,
        0.9999841451644897,
        0.9999977946281433
      ],
      "min": [
        -0.9999954700469971,
        -0.9999839663505554,
        -0.9999991059303284
      ],
      "type": "VEC3"
    },
    {
      "bufferView": 1,
      "byteOffset": 61888,
      "componentType": 5126,
      "count": 30944,
      "max": [
        0.0,
        1.0
      ],
      "min": [
        0.0,
        0.0
      ],
      "type": "VEC2"
    },
    {
      "bufferView": 0,
      "byteOffset": 46416,
      "componentType": 5125,
      "count": 46416,
      "type": "SCALAR"
    }
  ],
  "asset": {
    "extras": {
      "author": "narlankaaditya (https://sketchfab.com/narlankaaditya)",
      "license": "CC-BY-4.0 (http://creativecommons.org/licenses/by/4.0/)",
      "source": "https://sketchfab.com/3d-models/monaco-gp-racetrack-ebb9b9a0c19e4801815b19c55d14dea3",
      "title": "Monaco GP racetrack"
    },
    "generator": "Sketchfab-12.68.0",
    "version": "2.0"
  },
  "bufferViews": [
    {
      "buffer": 0,
      "byteLength": 232080,
      "name": "floatBufferViews",
      "target": 34963
    },
    {
      "buffer": 0,
      "byteLength": 309440,
      "byteOffset": 232080,
      "byteStride": 8,
      "name": "floatBufferViews",
      "target": 34962
    },
    {
      "buffer": 0,
      "byteLength": 928320,
      "byteOffset": 541520,
      "byteStride": 12,
      "name": "floatBufferViews",
      "target": 34962
    }
  ],
  "buffers": [
    {
      "byteLength": 1469840,
      "uri": "scene.bin"
    }
  ],
  "materials": [
    {
      "doubleSided": true,
      "name": "road",
      "pbrMetallicRoughness": {
        "baseColorFactor": [
          0.0376016,
          0.0376016,
          0.0376016,
          1.0
        ],
        "metallicFactor": 0.0,
        "roughnessFactor": 0.9944458757600949
      }
    },
    {
      "doubleSided": true,
      "name": "wall",
      "pbrMetallicRoughness": {
        "baseColorFactor": [
          0.8,
          0.0,
          0.000275661,
          1.0
        ],
        "metallicFactor": 0.0,
        "roughnessFactor": 0.9696581470406703
      }
    }
  ],
  "meshes": [
    {
      "name": "Plane_road_0",
      "primitives": [
        {
          "attributes": {
            "NORMAL": 1,
            "POSITION": 0,
            "TEXCOORD_0": 2
          },
          "indices": 3,
          "material": 0,
          "mode": 4
        }
      ]
    },
    {
      "name": "Plane_wall_0",
      "primitives": [
        {
          "attributes": {
            "NORMAL": 5,
            "POSITION": 4,
            "TEXCOORD_0": 6
          },
          "indices": 7,
          "material": 1,
          "mode": 4
        }
      ]
    }
  ],
  "nodes": [
    {
      "children": [
        1
      ],
      "matrix": [
        1.0,
        0.0,
        0.0,
        0.0,
        0.0,
        2.220446049250313e-16,
        -1.0,
        0.0,
        0.0,
        1.0,
        2.220446049250313e-16,
        0.0,
        0.0,
        0.0,
        0.0,
        1.0
      ],
      "name": "Sketchfab_model"
    },
    {
      "children": [
        2
      ],
      "matrix": [
        1.0,
        0.0,
        0.0,
        0.0,
        0.0,
        0.0,
        1.0,
        0.0,
        0.0,
        -1.0,
        0.0,
        0.0,
        0.0,
        0.0,
        0.0,
        1.0
      ],
      "name": "06f07fe28c9940e7bac4357da96dd7e2.fbx"
    },
    {
      "children": [
        3,
        5
      ],
      "name": "RootNode"
    },
    {
      "children": [
        4
      ],
      "matrix": [
        -65.15583280329096,
        -44.52713576570858,
        -61.41703047373549,
        0.0,
        -32.40134137821245,
        89.53957451233616,
        -30.542088974418615,
        0.0,
        68.59205472129975,
        -1.0718647115348782e-05,
        -72.7676336239627,
        0.0,
        735.88916015625,
        495.8309326171875,
        692.5791015625,
        1.0
      ],
      "name": "Camera"
    },
    {
      "name": "Object_4"
    },
    {
      "children": [
        6,
        7
      ],
      "matrix": [
        149.7445831298828,
        0.0,
        0.0,
        0.0,
        0.0,
        -1.629206793918314e-05,
        -99.99999999999868,
        0.0,
        0.0,
        99.99999999999868,
        -1.629206793918314e-05,
        0.0,
        0.0,
        0.0,
        0.0,
        1.0
      ],
      "name": "Plane"
    },
    {
      "mesh": 0,
      "name": "Plane_road_0"
    },
    {
      "mesh": 1,
      "name": "Plane_wall_0"
    }
  ],
  "scene": 0,
  "scenes": [
    {
      "name": "Sketchfab_Scene",
      "nodes": [
        0
      ]
    }
  ]
}
