<svg width="539" height="513" viewBox="0 0 539 513" fill="none" xmlns="http://www.w3.org/2000/svg">
<style>
svg { overflow: visible; }
@keyframes kf_Frame_8_transform_0 {
  0% {
    animation-timing-function: cubic-bezier(0.5, 0, 0.5, 1);
    transform: translate(269.5px, 256.5px) rotate(6.283rad) translate(-269.5px, -256.5px);
  }
  100% {
    transform: translate(269.5px, 256.5px) rotate(-6.283rad) translate(-269.5px, -256.5px);
  }
}
#Frame_8 {
  transform-origin: 0 0;
  animation: kf_Frame_8_transform_0 1.074199s linear infinite;
}
</style>
<g id="Frame_8">
<g id="Group_6" transform="translate(50.3774 7.8457)">
<path id="Vector_7" d="M0.0905838 154.571L14.9959 254.938C15.571 258.811 18.8644 261.698 22.7791 261.762L250.107 265.458L224.189 7.21165C223.547 0.81725 216.009 -2.24869 211.086 1.88261L125.297 73.8801C122.434 76.2829 121.616 80.3478 123.327 83.6707L191.271 215.608L10.8863 145.933C5.1666 143.724 -0.810122 148.506 0.0905838 154.571Z" fill="#C5D3FF" fill-opacity="0.85"/>
<path id="Vector_9" transform="translate(7.12037 222.642)" d="M255.473 266.15L326.363 193.553C329.098 190.752 329.404 186.383 327.086 183.228L192.478 0L2.55336 176.895C-2.14934 181.275 -0.0290322 189.132 6.23877 190.551L115.47 215.289C119.115 216.115 122.846 214.306 124.456 210.933L188.389 77.0064L242.064 262.782C243.765 268.672 251.189 270.537 255.473 266.15Z" fill="#0A1128" fill-opacity="0.85"/>
<path id="Vector_8" transform="translate(204.313 72.9753)" d="M203.808 27.946L106.178 0.303694C102.411 -0.762884 98.4253 1.05359 96.7591 4.59647L0 210.338L246.096 292.798C252.19 294.84 258.082 289.226 256.338 283.041L225.939 175.248C224.925 171.651 221.555 169.235 217.822 169.43L69.6197 177.175L207.248 41.3372C211.612 37.03 209.707 29.6164 203.808 27.946Z" fill="#718FF1" fill-opacity="0.8"/>
</g>
</g>
</svg>
