<svg width="539" height="513" viewBox="0 0 539 513" fill="none" xmlns="http://www.w3.org/2000/svg">
<path d="M50.468 162.417L65.3733 262.784C65.9485 266.656 69.2419 269.544 73.1565 269.608L300.485 273.304L274.566 15.0574C273.924 8.66295 266.386 5.59701 261.463 9.72831L175.674 81.7258C172.811 84.1286 171.994 88.1935 173.705 91.5164L241.649 223.454L61.2637 153.779C55.544 151.57 49.5673 156.352 50.468 162.417Z" fill="#C5D3FF" fill-opacity="0.85"/>
<path d="M312.971 496.638L383.861 424.041C386.596 421.24 386.902 416.871 384.584 413.716L249.976 230.488L60.0514 407.382C55.3487 411.763 57.469 419.619 63.7368 421.039L172.968 445.777C176.613 446.603 180.344 444.794 181.954 441.421L245.887 307.494L299.562 493.269C301.264 499.16 308.687 501.025 312.971 496.638Z" fill="#0A1128" fill-opacity="0.85"/>
<path d="M458.498 108.767L360.868 81.1245C357.101 80.0579 353.116 81.8744 351.449 85.4173L254.69 291.159L500.787 373.619C506.88 375.66 512.772 370.047 511.028 363.862L480.63 256.069C479.615 252.471 476.245 250.056 472.512 250.251L324.31 257.995L461.938 122.158C466.302 117.851 464.398 110.437 458.498 108.767Z" fill="#718FF1" fill-opacity="0.8"/>
</svg>
